<?xml version="1.0" standalone="no"?>
<!DOCTYPE svg PUBLIC "-//W3C//DTD SVG 20010904//EN"
 "http://www.w3.org/TR/2001/REC-SVG-20010904/DTD/svg10.dtd">
<svg version="1.0" xmlns="http://www.w3.org/2000/svg"
 width="500.000000pt" height="500.000000pt" viewBox="0 0 500.000000 500.000000"
 preserveAspectRatio="xMidYMid meet">

<g transform="translate(0.000000,500.000000) scale(0.100000,-0.100000)"
fill="#000000" stroke="none">
<path d="M978 3183 c-22 -3 -28 -11 -33 -36 -11 -67 -75 -609 -75 -638 l0 -31
96 4 c77 2 98 6 108 21 7 9 19 65 25 124 7 59 14 111 17 115 3 4 19 7 37 6 52
-1 115 21 153 54 104 92 113 282 16 356 -34 26 -39 27 -176 28 -78 1 -153 0
-168 -3z m205 -215 c-3 -35 -6 -64 -7 -65 -1 0 -10 -3 -21 -5 -17 -3 -20 2
-17 32 6 80 12 100 32 100 18 0 19 -5 13 -62z"/>
<path d="M1518 3183 c-16 -2 -28 -5 -28 -6 0 -1 -18 -148 -40 -327 -22 -179
-40 -335 -40 -347 l0 -23 184 0 c200 0 246 8 246 43 0 12 3 46 6 75 l7 52
-102 0 -101 0 0 28 c1 15 14 133 29 262 15 129 26 238 24 243 -4 7 -136 7
-185 0z"/>
<path d="M2150 3181 c-22 -6 -35 -37 -137 -346 -62 -187 -113 -343 -113 -347
0 -10 156 -9 190 1 18 5 28 18 37 50 15 54 15 53 46 46 23 -6 26 -13 29 -53
l3 -47 65 -3 c36 -2 85 0 109 3 l44 7 -7 101 c-13 208 -46 578 -51 587 -7 11
-177 12 -215 1z m83 -379 c-8 -42 -8 -59 1 -64 6 -4 -4 -8 -23 -8 -29 0 -33 3
-28 22 4 12 14 55 24 95 17 71 18 73 27 43 6 -19 5 -52 -1 -88z"/>
<path d="M2612 3183 c-13 -3 -25 -10 -28 -16 -4 -12 -84 -651 -84 -674 0 -16
143 -18 187 -3 l29 11 18 152 c10 83 19 153 21 155 5 5 18 -85 19 -123 0 -16
-4 -70 -8 -119 l-9 -88 111 3 c61 3 116 9 121 14 11 12 94 672 86 686 -7 10
-126 12 -175 3 l-32 -7 7 -92 c8 -108 -3 -241 -16 -190 -4 17 -15 90 -24 163
l-18 132 -91 -1 c-50 -1 -101 -4 -114 -6z"/>
<path d="M3198 3183 c-19 -3 -29 -12 -32 -26 -9 -39 -76 -621 -76 -650 l0 -29
200 4 c135 2 203 7 211 15 6 6 14 43 17 82 l5 71 -103 0 c-101 0 -102 0 -96
23 3 12 6 37 6 56 0 33 1 34 36 28 43 -7 81 6 87 30 3 10 8 44 12 76 l6 57
-55 0 -56 0 0 39 c0 68 3 70 79 64 85 -7 141 9 141 40 0 12 3 46 6 75 l7 52
-184 -1 c-101 -1 -196 -4 -211 -6z"/>
<path d="M3689 3183 c-23 -4 -27 -10 -33 -50 -3 -25 -6 -61 -6 -79 l0 -34 63
0 63 0 -27 -222 c-15 -123 -31 -245 -35 -272 l-6 -48 101 4 c55 2 105 8 111
14 5 5 23 122 40 259 17 138 32 255 34 260 1 6 28 10 59 10 31 0 61 5 67 11
12 12 29 122 22 143 -3 8 -64 11 -215 10 -117 -1 -224 -4 -238 -6z"/>
<path d="M1005 2433 c-11 -3 -23 -8 -27 -11 -3 -4 0 -77 7 -162 8 -85 19 -225
25 -310 6 -85 13 -170 16 -187 l5 -33 88 0 c151 0 129 -30 255 353 60 182 111
338 114 346 4 11 -14 13 -106 9 -62 -2 -115 -8 -119 -12 -4 -4 -11 -64 -15
-134 -4 -70 -13 -149 -22 -177 -14 -49 -14 -48 -16 110 -1 88 -1 172 0 188 l2
27 -94 -1 c-51 -1 -102 -3 -113 -6z"/>
<path d="M1590 2431 c-23 -6 -26 -14 -37 -91 -14 -98 -73 -583 -73 -600 0 -15
195 -10 209 5 7 8 91 639 91 684 0 12 -149 14 -190 2z"/>
<path d="M1893 2433 c-14 -3 -25 -14 -28 -26 -8 -39 -75 -621 -75 -650 l0 -29
200 4 c127 2 203 7 210 14 6 6 14 43 17 82 l6 72 -102 0 -101 0 6 43 c9 67 11
70 44 63 38 -7 77 7 83 31 3 10 8 44 12 76 l6 57 -55 0 -56 0 0 33 c0 71 1 72
105 72 52 0 98 5 103 10 6 6 13 43 17 83 l7 72 -188 -1 c-104 -1 -199 -4 -211
-6z"/>
<path d="M2383 2433 c-16 -3 -23 -11 -23 -28 0 -32 39 -556 46 -623 l6 -54 90
4 c68 2 92 7 101 19 7 9 28 85 46 168 26 112 37 147 43 131 10 -26 2 -112 -17
-194 -8 -33 -15 -76 -15 -93 l0 -33 64 0 c96 0 126 9 138 39 10 25 24 73 146
471 l59 195 -66 3 c-36 2 -85 1 -107 -3 l-42 -6 -5 -117 c-3 -64 -11 -135 -19
-157 -12 -38 -13 -31 -18 120 l-5 160 -82 0 c-45 -1 -85 -4 -90 -8 -4 -4 -10
-54 -14 -110 -8 -102 -21 -182 -33 -194 -3 -4 -6 66 -6 155 l0 162 -87 -1
c-49 -1 -98 -4 -110 -6z"/>
<path d="M3163 2433 c-17 -3 -23 -13 -28 -46 -16 -117 -75 -618 -75 -636 0
-21 4 -21 184 -21 102 0 196 4 209 9 26 10 30 21 42 114 l6 47 -101 0 -101 0
3 53 3 52 48 0 c27 1 53 7 62 15 8 8 17 45 21 83 l7 67 -57 0 c-61 0 -62 0
-50 70 l6 35 93 0 c55 0 99 5 105 11 6 6 14 43 17 82 l6 72 -189 -1 c-104 -1
-199 -4 -211 -6z"/>
<path d="M3670 2431 c-25 -7 -25 -9 -62 -306 -20 -165 -39 -322 -43 -349 l-6
-48 100 4 c56 2 105 8 111 14 8 8 39 199 40 248 0 6 6 3 11 -8 15 -24 14 -183
0 -219 -9 -22 -8 -29 4 -33 26 -10 183 0 196 13 10 10 8 43 -9 155 l-21 143
28 30 c44 46 64 94 68 165 6 85 -22 143 -87 177 -39 21 -56 23 -174 22 -72 -1
-142 -4 -156 -8z m213 -183 c-10 -89 -14 -98 -35 -98 -18 0 -20 4 -14 31 3 17
6 47 6 65 0 29 4 34 23 34 21 0 23 -4 20 -32z"/>
</g>
</svg>
